<mxfile host="app.diagrams.net" modified="2024-04-26T13:17:59.354Z" agent="Mozilla/5.0 (Windows NT 10.0; Win64; x64) AppleWebKit/537.36 (KHTML, like Gecko) Chrome/124.0.0.0 Safari/537.36" etag="0XeM_fT2F3myMQ4Fg3G7" version="24.3.0" type="github">
  <diagram name="PÃ¡gina-1" id="HQlGNSuIgaemtpltg8ey">
    <mxGraphModel dx="2261" dy="1941" grid="1" gridSize="10" guides="1" tooltips="1" connect="1" arrows="1" fold="1" page="1" pageScale="1" pageWidth="827" pageHeight="1169" math="0" shadow="0">
      <root>
        <mxCell id="0" />
        <mxCell id="1" parent="0" />
        <mxCell id="Slai5awg7YNG4auA7W4P-1" value="" style="whiteSpace=wrap;html=1;aspect=fixed;" vertex="1" parent="1">
          <mxGeometry x="-460" y="-75" width="660" height="660" as="geometry" />
        </mxCell>
        <mxCell id="Slai5awg7YNG4auA7W4P-5" value="" style="rounded=1;whiteSpace=wrap;html=1;" vertex="1" parent="1">
          <mxGeometry x="-460" y="-70" width="650" height="190" as="geometry" />
        </mxCell>
        <mxCell id="Slai5awg7YNG4auA7W4P-8" value="" style="ellipse;whiteSpace=wrap;html=1;aspect=fixed;" vertex="1" parent="1">
          <mxGeometry x="80" y="-20" width="100" height="100" as="geometry" />
        </mxCell>
        <mxCell id="Slai5awg7YNG4auA7W4P-9" value="" style="rounded=0;whiteSpace=wrap;html=1;" vertex="1" parent="1">
          <mxGeometry x="-430" y="250" width="120" height="70" as="geometry" />
        </mxCell>
        <mxCell id="Slai5awg7YNG4auA7W4P-10" value="" style="whiteSpace=wrap;html=1;aspect=fixed;" vertex="1" parent="1">
          <mxGeometry x="-20" y="400" width="140" height="140" as="geometry" />
        </mxCell>
        <mxCell id="Slai5awg7YNG4auA7W4P-11" value="" style="rounded=0;whiteSpace=wrap;html=1;" vertex="1" parent="1">
          <mxGeometry x="-430" y="390" width="120" height="70" as="geometry" />
        </mxCell>
      </root>
    </mxGraphModel>
  </diagram>
</mxfile>
